<?xml version="1.0" encoding="UTF-8"?>
<svg version="1.1" xmlns="http://www.w3.org/2000/svg" width="180" height="180">
<path d="M0 0 C59.4 0 118.8 0 180 0 C180 59.4 180 118.8 180 180 C120.6 180 61.2 180 0 180 C0 120.6 0 61.2 0 0 Z " fill="#00751B" transform="translate(0,0)"/>
<path d="M0 0 C2.93483076 2.3992777 5.48917882 5.16519702 7.60546875 8.3125 C7.60546875 8.9725 7.60546875 9.6325 7.60546875 10.3125 C6.5896875 10.34988281 5.57390625 10.38726562 4.52734375 10.42578125 C-5.21290489 10.86263823 -14.09612 12.21302958 -23.39453125 15.3125 C-23.88647078 19.44479203 -23.60454235 21.00648383 -21.20703125 24.5 C-17.70832147 28.03831903 -17.70832147 28.03831903 -13.39453125 30.3125 C-10.52943644 29.73948104 -8.2268155 28.7576318 -5.65625 27.3828125 C0.20281478 24.25312573 6.13296807 22.73645015 12.60546875 21.3125 C12.1516598 23.20942143 11.69221883 25.10499595 11.23046875 27 C10.97523437 28.05574219 10.72 29.11148438 10.45703125 30.19921875 C10.17601562 31.22660156 9.895 32.25398438 9.60546875 33.3125 C9.42757812 34.1890625 9.2496875 35.065625 9.06640625 35.96875 C6.66384846 39.82312079 2.74791964 40.62083267 -1.39453125 42.125 C-12.93359596 46.63324052 -22.72443021 52.81624009 -28.39453125 64.3125 C-29.19754628 70.09276134 -29.18820654 75.50292035 -26.83203125 80.875 C-18.15788124 89.54915001 -5.05415688 91.31955877 6.76171875 91.41015625 C8.54299526 91.40360744 10.32425969 91.39182828 12.10546875 91.375 C13.02328125 91.37048828 13.94109375 91.36597656 14.88671875 91.36132812 C17.12637266 91.34966326 19.3658842 91.33329614 21.60546875 91.3125 C21.27341142 94.31483834 20.97462638 95.92146212 18.87133789 98.14941406 C18.13520264 98.70338867 17.39906738 99.25736328 16.640625 99.828125 C15.84076172 100.43914062 15.04089844 101.05015625 14.21679688 101.6796875 C13.37568359 102.30101562 12.53457031 102.92234375 11.66796875 103.5625 C10.83072266 104.19929688 9.99347656 104.83609375 9.13085938 105.4921875 C2.46732088 110.53138797 -0.97000223 111.92068792 -9.39453125 111.3125 C-18.87409876 109.87841158 -25.51014458 106.93177063 -31.70703125 99.5625 C-38.2889375 86.88623612 -38.01801479 71.86614311 -34.46484375 58.22265625 C-33.00245488 54.24645293 -30.94642616 50.88219924 -28.50390625 47.43359375 C-27.20869284 45.41989732 -27.20869284 45.41989732 -27.5625 43.35546875 C-28.56587373 40.89178583 -29.74531748 38.55569273 -30.95703125 36.1875 C-35.04376121 27.21807814 -33.92486903 20.25531675 -30.59765625 11.15234375 C-28.06704263 5.17910965 -25.59506616 0.01529727 -19.39453125 -2.6875 C-12.91726713 -4.7099369 -5.68491632 -3.67291506 0 0 Z " fill="#F9FBF9" transform="translate(99.39453125,37.6875)"/>
<path d="M0 0 C5.99225614 0.04304782 11.16277795 1.58138897 16.5 4.25 C16.5 4.91 16.5 5.57 16.5 6.25 C17.11875 6.53875 17.7375 6.8275 18.375 7.125 C20.5 8.25 20.5 8.25 22.5 10.25 C22.125 12.375 22.125 12.375 21.5 14.25 C20.778125 13.5075 20.05625 12.765 19.3125 12 C14.00040047 6.80594712 9.80793789 3.32582768 2.0390625 3.21484375 C-3.45667575 3.55316998 -7.44043835 4.28484676 -11.5 8.25 C-16.30040082 16.68747331 -20.18043645 26.43125149 -18.5 36.25 C-17.08615841 39.49823097 -15.49590052 42.52461997 -13.71484375 45.5859375 C-12.5 48.25 -12.5 48.25 -12.6328125 50.25 C-13.76919817 52.87085344 -15.08093244 55.36087234 -16.4375 57.875 C-22.26340928 69.49894339 -22.04265433 81.4777855 -22.5 94.25 C-22.83 94.25 -23.16 94.25 -23.5 94.25 C-24.53590199 89.19997778 -24.60251672 84.37583611 -24.5 79.25 C-24.995 79.745 -24.995 79.745 -25.5 80.25 C-25.83 78.93 -26.16 77.61 -26.5 76.25 C-27.49 76.25 -28.48 76.25 -29.5 76.25 C-29.17 74.93 -28.84 73.61 -28.5 72.25 C-26.85 72.25 -25.2 72.25 -23.5 72.25 C-22.13367524 60.53864493 -21.36991141 49.04903517 -21.5 37.25 C-21.52550971 34.87504563 -21.5465423 32.50003776 -21.5625 30.125 C-21.57410156 29.09117188 -21.58570313 28.05734375 -21.59765625 26.9921875 C-21.51050821 24.54507057 -21.17552087 22.58629511 -20.5 20.25 C-20.08769669 17.4373566 -19.67893345 14.62498964 -19.29296875 11.80859375 C-18.32827921 8.69592552 -17.15878826 8.01215986 -14.5 6.25 C-13.23152315 3.66501488 -13.23152315 3.66501488 -12.5 1.25 C-11.365625 1.270625 -10.23125 1.29125 -9.0625 1.3125 C-5.51517232 1.25026618 -3.63055062 0.06723242 0 0 Z " fill="#0C5A15" transform="translate(85.5,31.75)"/>
<path d="M0 0 C0 0.66 0 1.32 0 2 C1.32 2.33 2.64 2.66 4 3 C2.56260487 3.02712066 1.12506137 3.04645067 -0.3125 3.0625 C-1.51326172 3.07990234 -1.51326172 3.07990234 -2.73828125 3.09765625 C-5 3 -5 3 -8 2 C-8.66 3.65 -9.32 5.3 -10 7 C-8.35 7.66 -6.7 8.32 -5 9 C-5.99 9.33 -6.98 9.66 -8 10 C-8 10.66 -8 11.32 -8 12 C-7.01 12.33 -6.02 12.66 -5 13 C-4.67 13.66 -4.34 14.32 -4 15 C-5.88366853 16.06350663 -7.7825329 17.10013229 -9.6875 18.125 C-10.74324219 18.70507812 -11.79898438 19.28515625 -12.88671875 19.8828125 C-16 21 -16 21 -18.6953125 20.33203125 C-22.95059441 17.87262255 -26.2414209 15.13786865 -29 11 C-28.9375 8 -28.9375 8 -28 5 C-20.92073013 -1.39417924 -8.82102857 -0.24886914 0 0 Z " fill="#026A15" transform="translate(104,48)"/>
<path d="M0 0 C0.99 0.99 1.98 1.98 3 3 C2.01 4.32 1.02 5.64 0 7 C0.78375 6.649375 1.5675 6.29875 2.375 5.9375 C3.24125 5.628125 4.1075 5.31875 5 5 C5.66 5.33 6.32 5.66 7 6 C7.33 5.01 7.66 4.02 8 3 C8 4.32 8 5.64 8 7 C7.34 7 6.68 7 6 7 C5.67386382 11.67461851 6.29417212 14.16674383 9 18 C5.125 17.125 5.125 17.125 4 16 C3.67 16.66 3.34 17.32 3 18 C2.34 18 1.68 18 1 18 C1.14095064 19.6254308 1.28792087 21.25034051 1.4375 22.875 C1.51871094 23.77992187 1.59992188 24.68484375 1.68359375 25.6171875 C1.86989285 28.01110861 1.86989285 28.01110861 3 30 C2.34 30.99 1.68 31.98 1 33 C-3.50261781 24.54151082 -5.68882712 18.11022 -3.08984375 8.70703125 C-2.12998476 5.77240861 -1.10890837 2.88118156 0 0 Z " fill="#FDF8F8" transform="translate(70,46)"/>
<path d="M0 0 C1.06700419 3.98109128 1.52281995 7.90988529 2 12 C2.33 10.35 2.66 8.7 3 7 C5 9 5 9 5.1953125 12.4765625 C5.18201493 13.85950968 5.15816232 15.24238654 5.125 16.625 C5.11597656 17.33140625 5.10695313 18.0378125 5.09765625 18.765625 C5.07407603 20.51056098 5.03820461 22.25532295 5 24 C4.34 24 3.68 24 3 24 C2.67 24.99 2.34 25.98 2 27 C2 24.69 2 22.38 2 20 C1.34 19.67 0.68 19.34 0 19 C-0.33 20.65 -0.66 22.3 -1 24 C-0.34 24 0.32 24 1 24 C1 24.66 1 25.32 1 26 C0.34 26 -0.32 26 -1 26 C-0.68991116 27.60463449 -0.37683713 29.20869231 -0.0625 30.8125 C0.11152344 31.70582031 0.28554687 32.59914062 0.46484375 33.51953125 C0.97741153 36.11397171 0.97741153 36.11397171 2 39 C1.34 39.66 0.68 40.32 0 41 C-5.47074066 28.03955487 -3.90869609 13.16858327 0 0 Z " fill="#D7F0DA" transform="translate(66,93)"/>
<path d="M0 0 C-1.23371648 7.40229885 -1.23371648 7.40229885 -5.125 10.4375 C-6.548125 11.2109375 -6.548125 11.2109375 -8 12 C-8 12.33 -8 12.66 -8 13 C-6.35 13.33 -4.7 13.66 -3 14 C-3.33 14.66 -3.66 15.32 -4 16 C-5.03060547 15.93039063 -5.03060547 15.93039063 -6.08203125 15.859375 C-6.98308594 15.82328125 -7.88414063 15.7871875 -8.8125 15.75 C-10.15248047 15.68039063 -10.15248047 15.68039063 -11.51953125 15.609375 C-14.1636625 15.74243317 -14.1636625 15.74243317 -15.63671875 18.015625 C-16.08660156 18.67046875 -16.53648438 19.3253125 -17 20 C-17.99 20 -18.98 20 -20 20 C-18.86560182 16.59680547 -17.69698684 15.31170301 -15 13 C-14.34 12.896875 -13.68 12.79375 -13 12.6875 C-10.03045505 11.66671892 -9.21480333 9.44984132 -7.80859375 6.78515625 C-6.94998778 4.88958654 -6.46687279 3.02311542 -6 1 C-4 0 -4 0 0 0 Z M-18 20 C-17.34 20.99 -16.68 21.98 -16 23 C-17.65 23.33 -19.3 23.66 -21 24 C-20.01 22.68 -19.02 21.36 -18 20 Z " fill="#068B2B" transform="translate(128,128)"/>
<path d="M0 0 C0 0.66 0 1.32 0 2 C1.32 2.33 2.64 2.66 4 3 C3.24976563 2.97679687 2.49953125 2.95359375 1.7265625 2.9296875 C-4.39751525 2.82170628 -9.90014561 3.14453713 -15.84375 4.66015625 C-18.20927713 5.0329839 -19.74090606 4.73420553 -22 4 C-21.67 4.99 -21.34 5.98 -21 7 C-22.65 7 -24.3 7 -26 7 C-26 8.98 -26 10.96 -26 13 C-25.34 13 -24.68 13 -24 13 C-24.33 13.99 -24.66 14.98 -25 16 C-27.70832798 13.20960147 -28.98323766 11.83811679 -29.0625 7.875 C-28 5 -28 5 -26.0625 3.25 C-17.56017713 -0.22033587 -9.07795505 -0.25611785 0 0 Z " fill="#13531F" transform="translate(104,48)"/>
<path d="M0 0 C3.74139508 2.41724338 6.76991734 5.68667194 9.25 9.375 C9.25 10.035 9.25 10.695 9.25 11.375 C4.63 11.375 0.01 11.375 -4.75 11.375 C-3.76 10.385 -2.77 9.395 -1.75 8.375 C-1.09 8.375 -0.43 8.375 0.25 8.375 C0.25 9.035 0.25 9.695 0.25 10.375 C0.91 10.375 1.57 10.375 2.25 10.375 C0.765 5.92 0.765 5.92 -0.75 1.375 C-2.73 1.375 -4.71 1.375 -6.75 1.375 C-6.75 0.715 -6.75 0.055 -6.75 -0.625 C-7.35328125 -0.54121094 -7.9565625 -0.45742188 -8.578125 -0.37109375 C-9.37734375 -0.26925781 -10.1765625 -0.16742188 -11 -0.0625 C-11.78890625 0.04191406 -12.5778125 0.14632812 -13.390625 0.25390625 C-15.75532874 0.37527349 -17.5011037 0.07133257 -19.75 -0.625 C-13.32509519 -3.49929952 -6.27570796 -3.2283021 0 0 Z " fill="#E8F6ED" transform="translate(97.75,36.625)"/>
<path d="M0 0 C0.66 0.33 1.32 0.66 2 1 C1.26708288 2.1774734 0.51296199 3.34176854 -0.25 4.5 C-0.87648438 5.47453125 -0.87648438 5.47453125 -1.515625 6.46875 C-2.00546875 6.9740625 -2.4953125 7.479375 -3 8 C-4.32 8 -5.64 8 -7 8 C-7.28875 8.639375 -7.5775 9.27875 -7.875 9.9375 C-9 12 -9 12 -11 13 C-11.474375 13.845625 -11.94875 14.69125 -12.4375 15.5625 C-12.953125 16.366875 -13.46875 17.17125 -14 18 C-14.99 18 -15.98 18 -17 18 C-17.804375 18.20625 -18.60875 18.4125 -19.4375 18.625 C-22.39141793 19.05728067 -23.51889985 18.56217417 -26 17 C-24.02 17 -22.04 17 -20 17 C-20 16.34 -20 15.68 -20 15 C-18.22010315 13.51675263 -16.37336474 12.11329018 -14.5 10.75 C-13.40102619 9.94403152 -12.30206791 9.13804186 -11.203125 8.33203125 C-10.14609375 7.56246094 -9.0890625 6.79289063 -8 6 C-6.41436327 4.81557741 -4.83060006 3.62863566 -3.25 2.4375 C-2.16666667 1.625 -1.08333333 0.8125 0 0 Z " fill="#1B692E" transform="translate(120,133)"/>
<path d="M0 0 C0.85078125 0.144375 1.7015625 0.28875 2.578125 0.4375 C13.42935767 2.09981649 24.03736463 2.20033242 35 2 C34.67 3.65 34.34 5.3 34 7 C33.505 5.515 33.505 5.515 33 4 C32.21625 4.185625 31.4325 4.37125 30.625 4.5625 C25.96066559 5.12543691 21.64022271 4.59607604 17 4 C17 4.66 17 5.32 17 6 C12.05 6 7.1 6 2 6 C1.34 4.02 0.68 2.04 0 0 Z " fill="#E2F6EC" transform="translate(86,127)"/>
<path d="M0 0 C0.66 0.33 1.32 0.66 2 1 C0.625 2.5 0.625 2.5 -1 4 C-1.66 4 -2.32 4 -3 4 C-3 5.65 -3 7.3 -3 9 C-3.99 9.33 -4.98 9.66 -6 10 C-8.78230211 14.28046478 -9.38759218 17.97566134 -9.59375 22.94921875 C-10.09348228 25.47190573 -11.06006325 26.37478703 -13 28 C-13.65569 20.14386238 -13.74205357 14.33712539 -8.80078125 7.9453125 C-6.06196882 4.98668215 -3.17998994 2.48039216 0 0 Z " fill="#15521E" transform="translate(83,87)"/>
<path d="M0 0 C0.33 0 0.66 0 1 0 C0.67 10.23 0.34 20.46 0 31 C-0.33 31 -0.66 31 -1 31 C-2.03590199 25.94997778 -2.10251672 21.12583611 -2 16 C-2.33 16.33 -2.66 16.66 -3 17 C-3.33 15.68 -3.66 14.36 -4 13 C-4.99 13 -5.98 13 -7 13 C-6.67 11.68 -6.34 10.36 -6 9 C-4.35 9 -2.7 9 -1 9 C-0.67 6.03 -0.34 3.06 0 0 Z " fill="#095B12" transform="translate(63,95)"/>
<path d="M0 0 C0.90349569 3.61398278 1.11644578 4.74199614 0.3125 8.125 C0.16425781 8.80820313 0.01601562 9.49140625 -0.13671875 10.1953125 C-1.31705495 12.66280265 -2.45237753 13.09077785 -5 14 C-7.36182053 14.34931127 -9.6927185 14.50034164 -12.07421875 14.65625 C-13.02748047 14.82640625 -13.02748047 14.82640625 -14 15 C-14.33 15.66 -14.66 16.32 -15 17 C-17.06640625 17.8515625 -17.06640625 17.8515625 -19.5625 18.625 C-20.80193359 19.01558594 -20.80193359 19.01558594 -22.06640625 19.4140625 C-22.70449219 19.60742188 -23.34257813 19.80078125 -24 20 C-20.72092755 16.13237609 -17.01744983 14.49314208 -12.375 12.75 C-11.3540625 12.3478125 -11.3540625 12.3478125 -10.3125 11.9375 C-5.31058673 10 -5.31058673 10 -3 10 C-2.01 6.7 -1.02 3.4 0 0 Z " fill="#13431C" transform="translate(110,66)"/>
<path d="M0 0 C1.40907283 2.81814566 0.50872691 4.17277204 -0.4375 7.125 C-0.86869141 8.49011719 -0.86869141 8.49011719 -1.30859375 9.8828125 C-1.53675781 10.58148438 -1.76492187 11.28015625 -2 12 C-4 8.25 -4 8.25 -4 6 C-7.23790661 5.80376324 -9.46845171 6.13730481 -12.625 7.0625 C-16 8 -16 8 -19 7 C-12.83373752 3.62600732 -6.82207807 1.65535718 0 0 Z " fill="#E2F5E5" transform="translate(111,59)"/>
<path d="M0 0 C5.26053037 -0.31563182 8.44573816 0.33409063 13 3 C13 3.66 13 4.32 13 5 C13.61875 5.28875 14.2375 5.5775 14.875 5.875 C17 7 17 7 19 9 C18.625 11.125 18.625 11.125 18 13 C17.278125 12.2575 16.55625 11.515 15.8125 10.75 C10.74910751 5.79912734 6.65515192 3.2559837 0 1 C0 0.67 0 0.34 0 0 Z " fill="#186726" transform="translate(89,33)"/>
<path d="M0 0 C1.27899448 4.38512392 2.62357501 9.64427217 1.4375 14.125 C0.74400225 17.09713323 1.88206053 19.23457078 3 22 C3.66 22.99 4.32 23.98 5 25 C4.34 25.99 3.68 26.98 3 28 C-1.58825082 19.38064311 -3.63335209 12.44733096 -1 2.875 C-0.67 1.92625 -0.34 0.9775 0 0 Z " fill="#E9FBE7" transform="translate(68,51)"/>
<path d="M0 0 C0.99 1.0828125 0.99 1.0828125 2 2.1875 C6.2834691 6.48317271 11.58446559 9.35857007 17 12 C15.375 13.1875 15.375 13.1875 13 14 C9.75 12.625 9.75 12.625 7 11 C7 10.34 7 9.68 7 9 C4.69 8.34 2.38 7.68 0 7 C0 4.69 0 2.38 0 0 Z " fill="#1A6A2E" transform="translate(67,136)"/>
<path d="M0 0 C3 1 3 1 4.5625 3.3125 C8.04199822 7.14886983 12.17597752 8.35209919 17 10 C14 12 14 12 10.75 11.5 C6.41362023 10.08836999 3.03185002 7.3658674 0 4 C-0.33 3.01 -0.66 2.02 -1 1 C-0.67 0.67 -0.34 0.34 0 0 Z " fill="#176B2A" transform="translate(72,115)"/>
<path d="M0 0 C-0.47241991 4.25177923 -2.84964071 6.29969203 -6 9 C-6.99 9 -7.98 9 -9 9 C-9 9.99 -9 10.98 -9 12 C-9.66 11.67 -10.32 11.34 -11 11 C-11.625 8.9375 -11.625 8.9375 -12 7 C-10.68 6.67 -9.36 6.34 -8 6 C-7.67 4.35 -7.34 2.7 -7 1 C-2.25 0 -2.25 0 0 0 Z " fill="#056F20" transform="translate(92,84)"/>
<path d="M0 0 C2 2 2 2 2.1953125 5.4765625 C2.18201493 6.85950968 2.15816232 8.24238654 2.125 9.625 C2.11597656 10.33140625 2.10695313 11.0378125 2.09765625 11.765625 C2.07407603 13.51056098 2.03820461 15.25532295 2 17 C1.34 17 0.68 17 0 17 C-0.33 17.99 -0.66 18.98 -1 20 C-0.9071875 18.329375 -0.9071875 18.329375 -0.8125 16.625 C-0.874375 15.42875 -0.93625 14.2325 -1 13 C-1.99 12.34 -2.98 11.68 -4 11 C-4.1875 7.375 -4.1875 7.375 -4 4 C-3.67 4.66 -3.34 5.32 -3 6 C-2.34 5.67 -1.68 5.34 -1 5 C-0.34444881 2.47266765 -0.34444881 2.47266765 0 0 Z " fill="#E5F1E8" transform="translate(69,100)"/>
<path d="M0 0 C0.66 0.33 1.32 0.66 2 1 C1.08599665 5.76424246 -1.38777854 9.77339621 -3.625 14.02734375 C-4.88343135 16.74798652 -5.56542059 19.05029223 -6 22 C-6.33 22 -6.66 22 -7 22 C-7.56611298 15.20664429 -6.52162668 10.80626621 -3 5 C-2.4225 4.01 -1.845 3.02 -1.25 2 C-0.8375 1.34 -0.425 0.68 0 0 Z " fill="#12581D" transform="translate(71,79)"/>
<path d="M0 0 C0.66 0 1.32 0 2 0 C3.15795477 3.47386432 3.16829849 6.27769304 3.1875 9.9375 C3.20167969 11.16339844 3.21585937 12.38929687 3.23046875 13.65234375 C3.01676797 16.75643812 2.63998182 18.41362551 1 21 C0.34 20.67 -0.32 20.34 -1 20 C-0.34 15.38 0.32 10.76 1 6 C0.34 6 -0.32 6 -1 6 C-1.042721 4.33388095 -1.04063832 2.66617115 -1 1 C-0.67 0.67 -0.34 0.34 0 0 Z " fill="#156F2A" transform="translate(110,54)"/>
<path d="M0 0 C7.92 0.33 15.84 0.66 24 1 C22 3 22 3 18.8046875 3.23046875 C17.50789063 3.21628906 16.21109375 3.20210937 14.875 3.1875 C14.20009521 3.18105469 13.52519043 3.17460937 12.82983398 3.16796875 C8.1444659 3.09580811 3.62008565 2.7542997 -1 2 C-0.67 1.34 -0.34 0.68 0 0 Z " fill="#297C3D" transform="translate(94,127)"/>
<path d="M0 0 C0.99 0.495 0.99 0.495 2 1 C1.9175 2.258125 1.835 3.51625 1.75 4.8125 C1.72605105 9.85774446 3.15854816 13.87768414 5.02734375 18.51953125 C6.69588415 22.77464431 6.69588415 22.77464431 7 25 C6.34 25.66 5.68 26.32 5 27 C3.39644899 23.49223216 2.77963136 20.85645121 3 17 C2.34 17 1.68 17 1 17 C-0.22517308 11.33357449 -0.09228867 5.76291482 0 0 Z " fill="#156827" transform="translate(60,110)"/>
<path d="M0 0 C-0.66 2.64 -1.32 5.28 -2 8 C-3.98 8 -5.96 8 -8 8 C-7.67 5.69 -7.34 3.38 -7 1 C-4 0 -4 0 0 0 Z " fill="#108735" transform="translate(128,128)"/>
<path d="M0 0 C0 2.69221537 -0.10885078 5.3166221 -0.3125 8 C-0.37050781 8.86625 -0.42851563 9.7325 -0.48828125 10.625 C-1.07177003 13.33310061 -1.88444701 14.27579595 -4 16 C-4.05386629 13.87527424 -4.09273071 11.75016348 -4.125 9.625 C-4.14820312 8.44164063 -4.17140625 7.25828125 -4.1953125 6.0390625 C-4 3 -4 3 -2 1 C-1.34 0.67 -0.68 0.34 0 0 Z " fill="#185D28" transform="translate(74,99)"/>
<path d="M0 0 C1.32 0.66 2.64 1.32 4 2 C3.278125 2.70125 2.55625 3.4025 1.8125 4.125 C-0.99854043 6.92805452 -3.47964687 9.93470565 -6 13 C-6.66 13.66 -7.32 14.32 -8 15 C-8 10.26886581 -6.8394052 8.67452438 -4 5 C-3.34 5 -2.68 5 -2 5 C-1.34 3.35 -0.68 1.7 0 0 Z " fill="#EBF2E9" transform="translate(80,84)"/>
<path d="M0 0 C-2.49064888 0.68707555 -4.37886292 1 -7 1 C-7 0.34 -7 -0.32 -7 -1 C-7.60328125 -0.91621094 -8.2065625 -0.83242188 -8.828125 -0.74609375 C-9.62734375 -0.64425781 -10.4265625 -0.54242188 -11.25 -0.4375 C-12.03890625 -0.33308594 -12.8278125 -0.22867188 -13.640625 -0.12109375 C-16.00532874 0.00027349 -17.7511037 -0.30366743 -20 -1 C-13.43114033 -3.93870038 -6.26192911 -3.52053157 0 0 Z " fill="#D2F0D8" transform="translate(98,37)"/>
<path d="M0 0 C2.71527659 -0.07757933 5.07965687 0.01629345 7.75 0.5625 C8.4925 0.706875 9.235 0.85125 10 1 C10.33 0.67 10.66 0.34 11 0 C12.66617115 -0.04063832 14.33388095 -0.042721 16 0 C12.86141812 2.65572313 10.07415993 4.26665121 6 5 C2.625 3.1875 2.625 3.1875 0 1 C0 0.67 0 0.34 0 0 Z " fill="#1B6127" transform="translate(80,64)"/>
<path d="M0 0 C0.66 0.33 1.32 0.66 2 1 C-1.85623679 7.50739958 -1.85623679 7.50739958 -5.11328125 8.91015625 C-7.05385609 9.37548059 -9.02723582 9.69906987 -11 10 C-7.84778899 5.58690458 -4.44536093 2.99206986 0 0 Z " fill="#0F6128" transform="translate(120,133)"/>
<path d="M0 0 C2.76276177 0.52268466 5.3260876 1.10869587 8 2 C10.14255793 1.61067144 10.14255793 1.61067144 12 1 C12.33 1.99 12.66 2.98 13 4 C8.74433453 5.16063604 5.3164922 4.76173392 1 4 C0.67 2.68 0.34 1.36 0 0 Z " fill="#E1F4E7" transform="translate(80,66)"/>
<path d="M0 0 C5.28 0 10.56 0 16 0 C15.67 1.65 15.34 3.3 15 5 C14.01 5.33 13.02 5.66 12 6 C12.33 4.68 12.66 3.36 13 2 C11.68 2.33 10.36 2.66 9 3 C9 2.34 9 1.68 9 1 C6.03 1 3.06 1 0 1 C0 0.67 0 0.34 0 0 Z " fill="#EDF5EF" transform="translate(103,131)"/>
<path d="M0 0 C0.33 1.32 0.66 2.64 1 4 C0.34 4 -0.32 4 -1 4 C-1.32613618 8.67461851 -0.70582788 11.16674383 2 15 C0.68 14.67 -0.64 14.34 -2 14 C-2.99 10.37 -3.98 6.74 -5 3 C-4.01 2.67 -3.02 2.34 -2 2 C-1.34 2.33 -0.68 2.66 0 3 C0 2.01 0 1.02 0 0 Z " fill="#E6F3E8" transform="translate(77,49)"/>
<path d="M0 0 C-0.33 1.65 -0.66 3.3 -1 5 C-1.33 4.01 -1.66 3.02 -2 2 C-2.763125 2.185625 -3.52625 2.37125 -4.3125 2.5625 C-9.30269322 3.15455682 -14.02603203 2.57528099 -19 2 C-19 1.67 -19 1.34 -19 1 C-16.77100213 0.83109082 -14.54179338 0.66496313 -12.3125 0.5 C-10.45044922 0.36078125 -10.45044922 0.36078125 -8.55078125 0.21875 C-5.68500671 0.04220063 -2.86900043 -0.04388528 0 0 Z " fill="#DBF9E0" transform="translate(121,129)"/>
<path d="M0 0 C3.96 0 7.92 0 12 0 C11.34 0.66 10.68 1.32 10 2 C10.33 2.66 10.66 3.32 11 4 C3.375 3.125 3.375 3.125 0 2 C0 1.34 0 0.68 0 0 Z " fill="#0C5C1C" transform="translate(88,149)"/>
<path d="M0 0 C1.27162597 3.8148779 0.64661571 5.3931275 -1 9 C-3.125 9.875 -3.125 9.875 -5 10 C-3.84414715 6.08788267 -2.64465038 3.1254959 0 0 Z " fill="#DDF4E2" transform="translate(72,83)"/>
<path d="M0 0 C0.99 0.33 1.98 0.66 3 1 C0.66153846 6.66153846 0.66153846 6.66153846 -2.6875 8.375 C-3.450625 8.58125 -4.21375 8.7875 -5 9 C-3.90931332 5.22454612 -3.0916909 2.52956528 0 0 Z " fill="#DDF0DC" transform="translate(76,37)"/>
<path d="M0 0 C0.66 0.66 1.32 1.32 2 2 C4.58354218 2.16687448 4.58354218 2.16687448 7 2 C6.34 3.65 5.68 5.3 5 7 C1.73539027 5.19587357 0.11070205 4.16605307 -2 1 C-1.34 0.67 -0.68 0.34 0 0 Z " fill="#DCF1E1" transform="translate(71,137)"/>
<path d="M0 0 C1.17571451 3.67410785 1.07366746 7.16929183 1 11 C0.34 11 -0.32 11 -1 11 C-1 12.98 -1 14.96 -1 17 C-1.33 17 -1.66 17 -2 17 C-2.22084624 10.90218999 -2.01167675 5.78357065 0 0 Z " fill="#BEE2BF" transform="translate(68,51)"/>
<path d="M0 0 C1.99097846 2.98646769 2.94124926 5.59687262 4 9 C2.02 9.99 2.02 9.99 0 11 C0 7.37 0 3.74 0 0 Z " fill="#20672B" transform="translate(67,70)"/>
<path d="M0 0 C-3.69172595 3.53790403 -7.09390595 3.59115883 -12 4 C-4.75 -1.69642857 -4.75 -1.69642857 0 0 Z " fill="#D9EDD6" transform="translate(104,63)"/>
<path d="M0 0 C0.99 0.99 1.98 1.98 3 3 C2.34 3.66 1.68 4.32 1 5 C0.835 6.175625 0.67 7.35125 0.5 8.5625 C0.335 9.696875 0.17 10.83125 0 12 C-0.99 12.495 -0.99 12.495 -2 13 C-1.85915204 11.20793453 -1.71216299 9.41635083 -1.5625 7.625 C-1.48128906 6.62726562 -1.40007812 5.62953125 -1.31640625 4.6015625 C-1 2 -1 2 0 0 Z " fill="#E4F4E4" transform="translate(70,46)"/>
<path d="M0 0 C2.475 0.99 2.475 0.99 5 2 C3 4 3 4 0.6171875 4.1953125 C-0.28773437 4.17210937 -1.19265625 4.14890625 -2.125 4.125 C-3.49011719 4.09792969 -3.49011719 4.09792969 -4.8828125 4.0703125 C-5.58148438 4.04710937 -6.28015625 4.02390625 -7 4 C-7 3.67 -7 3.34 -7 3 C-5.5459375 2.5359375 -5.5459375 2.5359375 -4.0625 2.0625 C-1.15934208 1.30476658 -1.15934208 1.30476658 0 0 Z " fill="#D2E5D5" transform="translate(97,145)"/>
<path d="M0 0 C0.66 0.33 1.32 0.66 2 1 C2 2.66666667 2 4.33333333 2 6 C-0.5 7.6875 -0.5 7.6875 -3 9 C-2.30058404 5.85262818 -1.23921302 2.97411124 0 0 Z " fill="#054F0E" transform="translate(73,33)"/>
<path d="M0 0 C1.70884005 1.62339805 3.37446717 3.29319053 5 5 C5 5.66 5 6.32 5 7 C3.35 7 1.7 7 0 7 C0 4.69 0 2.38 0 0 Z " fill="#0E6F28" transform="translate(67,136)"/>
<path d="M0 0 C2 2 2 2 2.125 5.125 C2.08375 6.07375 2.0425 7.0225 2 8 C1.01 8 0.02 8 -1 8 C-1.125 2.25 -1.125 2.25 0 0 Z " fill="#006208" transform="translate(65,40)"/>
<path d="M0 0 C0.66 0.33 1.32 0.66 2 1 C-0.6234008 3.91488977 -3.71816394 5.88503898 -7 8 C-5.50902342 4.2047869 -3.24299151 2.38957269 0 0 Z " fill="#08370F" transform="translate(83,87)"/>
<path d="M0 0 C0.66 0.33 1.32 0.66 2 1 C1.43628586 4.26954202 0.50037734 5.82575883 -2 8 C-2 4.23312136 -1.76462683 3.08809695 0 0 Z " fill="#27632D" transform="translate(71,79)"/>
<path d="M0 0 C0 0.99 0 1.98 0 3 C-2.64 3.33 -5.28 3.66 -8 4 C-8.33 3.34 -8.66 2.68 -9 2 C-6.94921875 1.77213542 -4.8984375 1.54427083 -2.84765625 1.31640625 C-0.98859771 1.18113386 -0.98859771 1.18113386 0 0 Z " fill="#1E5F33" transform="translate(108,76)"/>
<path d="M0 0 C1.11375 0.185625 1.11375 0.185625 2.25 0.375 C-0.63087546 2.77572955 -3.31404834 4.84791037 -6.75 6.375 C-3.42692308 0.46730769 -3.42692308 0.46730769 0 0 Z " fill="#039031" transform="translate(122.75,135.625)"/>
<path d="M0 0 C0 0.66 0 1.32 0 2 C-1.2065625 2.433125 -1.2065625 2.433125 -2.4375 2.875 C-5.1326468 3.73262568 -5.1326468 3.73262568 -6 6 C-6.66 6 -7.32 6 -8 6 C-7.67 4.35 -7.34 2.7 -7 1 C-2.25 0 -2.25 0 0 0 Z " fill="#1D6430" transform="translate(92,84)"/>
<path d="M0 0 C2.31 0 4.62 0 7 0 C7.33 0.99 7.66 1.98 8 3 C5.69 3 3.38 3 1 3 C0.67 2.01 0.34 1.02 0 0 Z " fill="#0C7024" transform="translate(96,59)"/>
<path d="M0 0 C0.99 0.33 1.98 0.66 3 1 C3 2.65 3 4.3 3 6 C3.66 6 4.32 6 5 6 C4.67 6.99 4.34 7.98 4 9 C0 4.5 0 4.5 0 0 Z " fill="#2A6433" transform="translate(75,55)"/>
<path d="M0 0 C0.66 0.33 1.32 0.66 2 1 C-1.465 3.97 -1.465 3.97 -5 7 C-5.66 6.67 -6.32 6.34 -7 6 C-4.69 4.02 -2.38 2.04 0 0 Z " fill="#133316" transform="translate(116,136)"/>
<path d="M0 0 C4.455 1.98 4.455 1.98 9 4 C9 4.33 9 4.66 9 5 C5.625 4.75 5.625 4.75 2 4 C1.34 2.68 0.68 1.36 0 0 Z " fill="#D0F1D4" transform="translate(75,122)"/>
<path d="M0 0 C1 2 1 2 0.0625 5.125 C-0.288125 6.07375 -0.63875 7.0225 -1 8 C-1.99 7.67 -2.98 7.34 -4 7 C-2.68 4.69 -1.36 2.38 0 0 Z " fill="#046816" transform="translate(77,96)"/>
</svg>
