<?xml version="1.0" encoding="UTF-8"?>
<svg version="1.1" xmlns="http://www.w3.org/2000/svg" width="161" height="161">
<path d="M0 0 C1.19302734 -0.00773438 2.38605469 -0.01546875 3.61523438 -0.0234375 C9.6472022 -0.01002568 14.7564505 0.2154249 20.4375 2.25 C21.57445313 2.54519531 22.71140625 2.84039062 23.8828125 3.14453125 C27.91760926 4.3993087 31.54805353 6.03803364 35.3125 7.9375 C36.00923828 8.2876416 36.70597656 8.6377832 37.42382812 8.99853516 C42.83791452 11.79245555 48.15408231 14.84759849 52.4375 19.25 C52.4375 19.91 52.4375 20.57 52.4375 21.25 C53.4275 21.25 54.4175 21.25 55.4375 21.25 C63.008398 27.95886506 70.57481653 38.48319757 73.4375 48.25 C73.1075 48.91 72.7775 49.57 72.4375 50.25 C73.4275 50.58 74.4175 50.91 75.4375 51.25 C76.5625 56 76.5625 56 75.4375 58.25 C76.0975 58.25 76.7575 58.25 77.4375 58.25 C78.54722327 62.72154826 78.59886017 67.11291453 78.60546875 71.69140625 C78.60879715 72.49609848 78.61212555 73.30079071 78.61555481 74.12986755 C78.62060158 75.82509797 78.62296383 77.52033825 78.62280273 79.21557617 C78.6249956 81.80729439 78.64319227 84.398591 78.66210938 86.99023438 C78.6650425 88.64062355 78.66702784 90.29101474 78.66796875 91.94140625 C78.67515427 92.71440567 78.68233978 93.48740509 78.68974304 94.28382874 C78.67331365 98.15177989 78.47848271 100.9377252 76.4375 104.25 C75.75494011 106.57873375 75.08699225 108.91182791 74.4375 111.25 C74.1075 111.91 73.7775 112.57 73.4375 113.25 C72.7775 113.25 72.1175 113.25 71.4375 113.25 C71.7675 114.24 72.0975 115.23 72.4375 116.25 C71.14453125 118.73828125 71.14453125 118.73828125 69.25 121.5625 C68.27353516 123.02816406 68.27353516 123.02816406 67.27734375 124.5234375 C66.36662109 125.87308594 66.36662109 125.87308594 65.4375 127.25 C64.72901288 128.39573825 64.02064006 129.54154721 63.3125 130.6875 C61.28321227 133.4608599 59.1702429 135.18377976 56.4375 137.25 C55.73625 137.9925 55.035 138.735 54.3125 139.5 C48.51487635 145.04555306 41.83355664 150.06688701 34.4375 153.25 C33.7775 152.92 33.1175 152.59 32.4375 152.25 C32.1075 153.24 31.7775 154.23 31.4375 155.25 C29.66015625 156.015625 29.66015625 156.015625 27.5 156.5 C26.78972656 156.67015625 26.07945313 156.8403125 25.34765625 157.015625 C23.4375 157.25 23.4375 157.25 21.4375 156.25 C21.4375 156.91 21.4375 157.57 21.4375 158.25 C13.66141258 160.18383508 6.24095271 160.55495211 -1.75 160.5 C-2.88630859 160.50773438 -4.02261719 160.51546875 -5.19335938 160.5234375 C-11.06047637 160.50975326 -16.03176292 160.22841526 -21.5625 158.25 C-22.820625 157.899375 -24.07875 157.54875 -25.375 157.1875 C-28.5625 156.25 -28.5625 156.25 -30.5625 155.25 C-30.5625 154.59 -30.5625 153.93 -30.5625 153.25 C-31.5525 153.58 -32.5425 153.91 -33.5625 154.25 C-54.51184301 145.58231951 -67.62366638 128.47756681 -76.5625 108.25 C-77.29022731 105.9349834 -77.9558092 103.5996415 -78.5625 101.25 C-78.92859375 100.05375 -79.2946875 98.8575 -79.671875 97.625 C-81.07577996 91.910281 -80.85228919 86.09901028 -80.8125 80.25 C-80.82023437 79.11304687 -80.82796875 77.97609375 -80.8359375 76.8046875 C-80.82146435 70.56675837 -80.38758194 65.21364802 -78.5625 59.25 C-78.25570312 58.06921875 -77.94890625 56.8884375 -77.6328125 55.671875 C-74.17756462 44.6251701 -67.41651372 31.8853433 -58.5625 24.25 C-57.9025 24.25 -57.2425 24.25 -56.5625 24.25 C-56.335625 23.6725 -56.10875 23.095 -55.875 22.5 C-54.21401778 19.65260191 -52.24725439 18.12932807 -49.5625 16.25 C-48.9025 16.25 -48.2425 16.25 -47.5625 16.25 C-47.5625 15.59 -47.5625 14.93 -47.5625 14.25 C-30.90230583 4.40533981 -30.90230583 4.40533981 -21.5625 2.25 C-20.45519531 1.9096875 -19.34789062 1.569375 -18.20703125 1.21875 C-12.2140958 -0.27914031 -6.13921913 -0.03992988 0 0 Z " fill="#2D3E4F" transform="translate(82.5625,0.75)"/>
<path d="M0 0 C0.81984375 0.09023438 1.6396875 0.18046875 2.484375 0.2734375 C4.42953405 0.52070348 6.36862212 0.81835978 8.30078125 1.15234375 C13.76988018 1.80690455 19.18427704 1.80926851 24.6875 1.8125 C25.78126953 1.82474609 26.87503906 1.83699219 28.00195312 1.84960938 C34.16501774 1.86074074 39.32675038 1.25945078 45.25 -0.375 C50.84849815 -0.53943141 55.70764885 0.14253078 60.25 3.625 C57.82804552 6.49755066 55.65257297 7.33338919 52.0625 8.3125 C51.16144531 8.56386719 50.26039062 8.81523438 49.33203125 9.07421875 C48.64496094 9.25597656 47.95789063 9.43773438 47.25 9.625 C47.29640625 10.31464844 47.3428125 11.00429687 47.390625 11.71484375 C47.69285908 19.58372392 46.83685414 25.70866448 41.37890625 31.66796875 C34.51654481 37.95954777 28.97521117 39.11490736 19.72265625 39.02734375 C14.95019037 38.47440338 11.83508164 36.7424623 8.25 33.625 C5.18465728 36.35895432 3.35863582 38.36698993 1.75 42.1875 C0.04914097 46.08530195 -1.39786333 47.11089749 -4.75 49.625 C-6.57135872 51.59674613 -8.30790763 53.6300589 -10.0546875 55.66796875 C-13.55779983 59.71188413 -17.287076 63.64971733 -21.75 66.625 C-23.9375 66.6875 -23.9375 66.6875 -25.75 65.625 C-27 63.0625 -27 63.0625 -27.75 60.625 C-22.91103939 54.98033493 -17.9071973 49.54419346 -12.6875 44.25 C-11.6655957 43.18458984 -11.6655957 43.18458984 -10.62304688 42.09765625 C-6.8546067 38.28215582 -4.10570273 35.90206772 1.25 34.625 C3.08689476 33.12613129 3.08689476 33.12613129 4.25 31.625 C2.91668259 28.15500907 2.91668259 28.15500907 1.1875 24.875 C-0.09354513 21.8004917 0.05868749 19.19062549 0.125 15.875 C0.14304687 14.70453125 0.16109375 13.5340625 0.1796875 12.328125 C0.20289062 11.43609375 0.22609375 10.5440625 0.25 9.625 C-0.35328125 9.52703125 -0.9565625 9.4290625 -1.578125 9.328125 C-6.45578282 8.41553096 -9.58823388 7.74904277 -12.75 3.625 C-8.2406838 0.82191155 -5.32414643 -0.6117808 0 0 Z " fill="#344353" transform="translate(65.75,59.375)"/>
<path d="M0 0 C3.95902684 3.39999758 5.97710355 8.62253179 7.6875 13.44921875 C7.6875 14.76921875 7.6875 16.08921875 7.6875 17.44921875 C0.24911664 19.25983716 -6.79771904 19.75687747 -14.4375 19.69921875 C-15.47003906 19.70695312 -16.50257812 19.7146875 -17.56640625 19.72265625 C-23.4996623 19.70753967 -28.6288596 19.16657772 -34.3125 17.44921875 C-33.61258346 15.26011808 -32.89472677 13.08007424 -32.1484375 10.90625 C-31.64095605 9.41463398 -31.15940792 7.91339645 -30.7265625 6.3984375 C-29.50590855 2.69684404 -28.38019086 1.48881152 -25 -0.48828125 C-17.5924944 -2.69273301 -7.19756522 -3.17995877 0 0 Z " fill="#F7F9FA" transform="translate(102.3125,37.55078125)"/>
<path d="M0 0 C1.32 0 2.64 0 4 0 C4.14695312 1.08667969 4.14695312 1.08667969 4.296875 2.1953125 C5.4490903 9.64498036 6.80574289 14.53776015 13 19.3125 C17.87560452 22.05502754 22.40301862 22.73004105 28 22 C33.25989907 20.24670031 37.03889374 17.78332549 40 13 C41.76095245 8.73664144 42.45182491 4.56812572 43 0 C44.32 0 45.64 0 47 0 C47.43931838 6.9192645 46.85267278 12.1083082 43 18 C38.31684924 23.13288967 33.76584151 26.57257474 26.73046875 27.37109375 C19.0898556 27.5143026 13.88813739 27.12011947 8 22 C4.93465728 24.73395432 3.10863582 26.74198993 1.5 30.5625 C-0.20085903 34.46030195 -1.64786333 35.48589749 -5 38 C-6.82135872 39.97174613 -8.55790763 42.0050589 -10.3046875 44.04296875 C-13.80779983 48.08688413 -17.537076 52.02471733 -22 55 C-24.1875 55.0625 -24.1875 55.0625 -26 54 C-27.25 51.4375 -27.25 51.4375 -28 49 C-23.16103939 43.35533493 -18.1571973 37.91919346 -12.9375 32.625 C-11.9155957 31.55958984 -11.9155957 31.55958984 -10.87304688 30.47265625 C-7.1046067 26.65715582 -4.35570273 24.27706772 1 23 C2.83689476 21.50113129 2.83689476 21.50113129 4 20 C2.65076391 16.50783745 2.65076391 16.50783745 0.9375 13.1875 C-0.24977691 10.4171872 -0.19646929 8.25171013 -0.125 5.25 C-0.10695313 4.26515625 -0.08890625 3.2803125 -0.0703125 2.265625 C-0.04710938 1.51796875 -0.02390625 0.7703125 0 0 Z " fill="#F0F3F4" transform="translate(66,71)"/>
<path d="M0 0 C0.81984375 0.09023438 1.6396875 0.18046875 2.484375 0.2734375 C4.42953405 0.52070348 6.36862212 0.81835978 8.30078125 1.15234375 C13.76988018 1.80690455 19.18427704 1.80926851 24.6875 1.8125 C25.78126953 1.82474609 26.87503906 1.83699219 28.00195312 1.84960938 C34.16501774 1.86074074 39.32675038 1.25945078 45.25 -0.375 C50.84849815 -0.53943141 55.70764885 0.14253078 60.25 3.625 C57.88393145 6.34791823 55.68666976 7.46368219 52.3125 8.6875 C51.45785156 9.00847656 50.60320312 9.32945313 49.72265625 9.66015625 C31.19059462 14.80910926 9.13535107 15.32198008 -8.75 7.625 C-11.23046875 5.453125 -11.23046875 5.453125 -12.75 3.625 C-8.2406838 0.82191155 -5.32414643 -0.6117808 0 0 Z " fill="#F5F7F8" transform="translate(65.75,59.375)"/>
<path d="M0 0 C1.32 0 2.64 0 4 0 C4.09796875 0.72445312 4.1959375 1.44890625 4.296875 2.1953125 C5.4490903 9.64498036 6.80574289 14.53776015 13 19.3125 C17.87560452 22.05502754 22.40301862 22.73004105 28 22 C33.25989907 20.24670031 37.03889374 17.78332549 40 13 C41.76095245 8.73664144 42.45182491 4.56812572 43 0 C44.32 0 45.64 0 47 0 C47.43931838 6.9192645 46.85267278 12.1083082 43 18 C38.31684924 23.13288967 33.76584151 26.57257474 26.73046875 27.37109375 C19.11843893 27.51376686 13.71165071 27.31316345 8 22 C4.00664977 17.98874237 0.21345706 14.05670511 -0.1953125 8.203125 C-0.17210938 7.22859375 -0.14890625 6.2540625 -0.125 5.25 C-0.09792969 3.77273437 -0.09792969 3.77273437 -0.0703125 2.265625 C-0.04710938 1.51796875 -0.02390625 0.7703125 0 0 Z " fill="#EFF3F7" transform="translate(66,71)"/>
<path d="M0 0 C0.33 1.65 0.66 3.3 1 5 C-6.07567549 7.51579573 -13.71806432 8.13171419 -21 6 C-21 5.34 -21 4.68 -21 4 C-22.32 3.34 -23.64 2.68 -25 2 C-21.20845538 1.66526866 -17.41674514 1.33245159 -13.625 1 C-12.54476562 0.90460937 -11.46453125 0.80921875 -10.3515625 0.7109375 C-8.8046875 0.57558594 -8.8046875 0.57558594 -7.2265625 0.4375 C-5.79691162 0.31181641 -5.79691162 0.31181641 -4.33837891 0.18359375 C-2 0 -2 0 0 0 Z " fill="#394655" transform="translate(109,55)"/>
<path d="M0 0 C0.99 0.33 1.98 0.66 3 1 C3.45375 1.928125 3.9075 2.85625 4.375 3.8125 C6.6431806 8.26162349 9.28352309 10.42784103 14 12 C14 12.99 14 13.98 14 15 C9.24845202 14.58074577 6.17543364 12.42180349 3 9 C1.02041763 5.70069605 0 3.84926685 0 0 Z " fill="#D8E0E8" transform="translate(72,77)"/>
<path d="M0 0 C1.65322266 0.01740234 1.65322266 0.01740234 3.33984375 0.03515625 C4.99693359 0.04869141 4.99693359 0.04869141 6.6875 0.0625 C7.54214844 0.07410156 8.39679688 0.08570312 9.27734375 0.09765625 C9.27734375 0.75765625 9.27734375 1.41765625 9.27734375 2.09765625 C9.93734375 2.42765625 10.59734375 2.75765625 11.27734375 3.09765625 C8.82352241 4.32456692 7.07750272 4.29941556 4.33984375 4.34765625 C3.02693359 4.38632813 3.02693359 4.38632813 1.6875 4.42578125 C-1.14204315 4.04055982 -1.9739855 3.29070868 -3.72265625 1.09765625 C-2.72265625 0.09765625 -2.72265625 0.09765625 0 0 Z " fill="#F7F9FB" transform="translate(86.72265625,93.90234375)"/>
<path d="M0 0 C2.97 0.33 5.94 0.66 9 1 C8.01 2.485 8.01 2.485 7 4 C7.66 4.66 8.32 5.32 9 6 C5.28111761 5.49287967 2.26545761 4.88391785 -1 3 C-0.67 2.01 -0.34 1.02 0 0 Z " fill="#EAEDEF" transform="translate(77,92)"/>
<path d="M0 0 C1.08667969 0.01804688 2.17335938 0.03609375 3.29296875 0.0546875 C4.54013672 0.08949219 4.54013672 0.08949219 5.8125 0.125 C6.1425 0.785 6.4725 1.445 6.8125 2.125 C1.23539352 3.19295656 -3.58186958 2.95122671 -9.1875 2.125 C-5.66070901 -0.22619399 -4.15870515 -0.08943452 0 0 Z " fill="#1C272F" transform="translate(82.1875,0.875)"/>
<path d="M0 0 C1.20628008 2.33214148 2.1654738 4.49642139 3 7 C2.01 7.495 2.01 7.495 1 8 C1 8.99 1 9.98 1 11 C-0.77624543 9.45543876 -1.9006995 8.21987969 -2.875 6.0625 C-3 4 -3 4 -1.5625 1.75 C-1.046875 1.1725 -0.53125 0.595 0 0 Z " fill="#E8EBF0" transform="translate(70,78)"/>
<path d="M0 0 C0.99 0.33 1.98 0.66 3 1 C1.75325341 3.49349318 0.30039894 4.46640071 -2 6 C-2.66 6 -3.32 6 -4 6 C-4.33 5.01 -4.66 4.02 -5 3 C-2.6875 1.4375 -2.6875 1.4375 0 0 Z " fill="#212C3A" transform="translate(45,9)"/>
<path d="M0 0 C2.97 0 5.94 0 9 0 C9 0.33 9 0.66 9 1 C7.35 1 5.7 1 4 1 C4 1.66 4 2.32 4 3 C5.32 3.33 6.64 3.66 8 4 C5.125 4.125 5.125 4.125 2 4 C1.34 3.34 0.68 2.68 0 2 C0 1.34 0 0.68 0 0 Z " fill="#2C3B4A" transform="translate(84,58)"/>
<path d="M0 0 C2 3 2 3 2 5 C2.99 5.33 3.98 5.66 5 6 C5 6.66 5 7.32 5 8 C3.125 7.8125 3.125 7.8125 1 7 C-0.3125 4.5625 -0.3125 4.5625 -1 2 C-0.67 1.34 -0.34 0.68 0 0 Z " fill="#939FAB" transform="translate(39,118)"/>
<path d="M0 0 C0.86625 0.556875 0.86625 0.556875 1.75 1.125 C0.43 1.455 -0.89 1.785 -2.25 2.125 C-2.25 2.785 -2.25 3.445 -2.25 4.125 C-3.57 3.795 -4.89 3.465 -6.25 3.125 C-6.25 2.465 -6.25 1.805 -6.25 1.125 C-2.80384615 -1.09038462 -2.80384615 -1.09038462 0 0 Z " fill="#2C3445" transform="translate(53.25,6.875)"/>
<path d="M0 0 C0.66 0.66 1.32 1.32 2 2 C0.35 3.32 -1.3 4.64 -3 6 C-3 4.68 -3 3.36 -3 2 C-2.01 1.34 -1.02 0.68 0 0 Z " fill="#DAE0E2" transform="translate(56,111)"/>
<path d="M0 0 C0.66 0.33 1.32 0.66 2 1 C1.34 2.65 0.68 4.3 0 6 C-0.99 6 -1.98 6 -3 6 C-3 4.68 -3 3.36 -3 2 C-2.01 1.34 -1.02 0.68 0 0 Z " fill="#FBFBF9" transform="translate(107,85)"/>
<path d="" fill="#010610" transform="translate(0,0)"/>
<path d="" fill="#00050A" transform="translate(0,0)"/>
</svg>
